<svg width="39" height="38" viewBox="0 0 39 38" fill="none" xmlns="http://www.w3.org/2000/svg">
<path d="M30.9395 8.99334L21.012 3.64167C19.967 3.07167 18.7003 3.07167 17.6553 3.64167L7.72782 8.99334C6.99949 9.38917 6.55615 10.1492 6.55615 11.02C6.55615 11.875 6.99949 12.6508 7.72782 13.0467L17.6553 18.3983C18.1778 18.6833 18.7637 18.8258 19.3337 18.8258C19.9037 18.8258 20.4895 18.6833 21.012 18.3983L30.9395 13.0467C31.6678 12.6508 32.1112 11.8908 32.1112 11.02C32.1112 10.1492 31.6678 9.38917 30.9395 8.99334Z" fill="url(#paint0_linear_25_1465)"/>
<path opacity="0.4" d="M16.0242 20.2508L6.7775 15.6275C6.065 15.2792 5.24167 15.3108 4.57667 15.7225C3.89583 16.15 3.5 16.8625 3.5 17.6542V26.3783C3.5 27.8825 4.33917 29.2442 5.685 29.925L14.9158 34.5483C15.2325 34.7067 15.5808 34.7858 15.9292 34.7858C16.3408 34.7858 16.7525 34.675 17.1167 34.4533C17.7975 34.0417 18.1933 33.3133 18.1933 32.5217V23.7975C18.2092 22.2775 17.37 20.9158 16.0242 20.2508Z" fill="url(#paint1_linear_25_1465)"/>
<path opacity="0.4" d="M34.0903 15.7225C33.4095 15.3108 32.5861 15.2633 31.8895 15.6275L22.6586 20.2508C21.3128 20.9317 20.4736 22.2775 20.4736 23.7975V32.5217C20.4736 33.3133 20.8695 34.0417 21.5503 34.4533C21.9145 34.675 22.3261 34.7858 22.7378 34.7858C23.0861 34.7858 23.4345 34.7067 23.7511 34.5483L32.982 29.925C34.3278 29.2442 35.167 27.8983 35.167 26.3783V17.6542C35.167 16.8625 34.7711 16.15 34.0903 15.7225Z" fill="url(#paint2_linear_25_1465)"/>
<defs>
<linearGradient id="paint0_linear_25_1465" x1="19.3337" y1="3.21417" x2="19.3337" y2="18.8258" gradientUnits="userSpaceOnUse">
<stop stop-color="#1472FF"/>
<stop offset="1" stop-color="#72AAFF"/>
</linearGradient>
<linearGradient id="paint1_linear_25_1465" x1="10.8468" y1="15.388" x2="10.8468" y2="34.7858" gradientUnits="userSpaceOnUse">
<stop stop-color="#1472FF"/>
<stop offset="1" stop-color="#72AAFF"/>
</linearGradient>
<linearGradient id="paint2_linear_25_1465" x1="27.8203" y1="15.3816" x2="27.8203" y2="34.7858" gradientUnits="userSpaceOnUse">
<stop stop-color="#1472FF"/>
<stop offset="1" stop-color="#72AAFF"/>
</linearGradient>
</defs>
</svg>
