<svg width="70" height="70" viewBox="0 0 70 70" fill="none" xmlns="http://www.w3.org/2000/svg">
<rect width="70" height="70" rx="23.3333" fill="#E1ECFA"/>
<path d="M28.6667 19.1667V23.9167" stroke="#1472FF" stroke-width="3" stroke-miterlimit="10" stroke-linecap="round" stroke-linejoin="round"/>
<path d="M41.3333 19.1667V23.9167" stroke="#1472FF" stroke-width="3" stroke-miterlimit="10" stroke-linecap="round" stroke-linejoin="round"/>
<path d="M21.5417 30.3925H48.4584" stroke="#1472FF" stroke-width="3" stroke-miterlimit="10" stroke-linecap="round" stroke-linejoin="round"/>
<path d="M50.8334 46.0833C50.8334 47.2708 50.5009 48.395 49.9151 49.345C48.8226 51.1817 46.8117 52.4167 44.5001 52.4167C42.9009 52.4167 41.4443 51.8308 40.3359 50.8333C39.8451 50.4217 39.4176 49.915 39.0851 49.345C38.4993 48.395 38.1667 47.2708 38.1667 46.0833C38.1667 42.5842 41.0009 39.75 44.5001 39.75C46.4001 39.75 48.0942 40.5891 49.2501 41.9033C50.2317 43.0275 50.8334 44.4842 50.8334 46.0833Z" stroke="#1472FF" stroke-width="3" stroke-miterlimit="10" stroke-linecap="round" stroke-linejoin="round"/>
<path d="M42.03 46.0833L43.5975 47.6508L46.97 44.5316" stroke="#1472FF" stroke-width="3" stroke-linecap="round" stroke-linejoin="round"/>
<path d="M49.25 29.4583V41.9033C48.0942 40.5891 46.4 39.75 44.5 39.75C41.0008 39.75 38.1667 42.5842 38.1667 46.0833C38.1667 47.2708 38.4992 48.395 39.085 49.345C39.4175 49.915 39.845 50.4217 40.3358 50.8333H28.6667C23.125 50.8333 20.75 47.6667 20.75 42.9167V29.4583C20.75 24.7083 23.125 21.5417 28.6667 21.5417H41.3333C46.875 21.5417 49.25 24.7083 49.25 29.4583Z" stroke="#1472FF" stroke-width="3" stroke-miterlimit="10" stroke-linecap="round" stroke-linejoin="round"/>
<path d="M34.9929 37.6917H35.0072" stroke="#1472FF" stroke-width="3" stroke-linecap="round" stroke-linejoin="round"/>
<path d="M29.1326 37.6917H29.1468" stroke="#1472FF" stroke-width="3" stroke-linecap="round" stroke-linejoin="round"/>
<path d="M29.1326 42.4417H29.1468" stroke="#1472FF" stroke-width="3" stroke-linecap="round" stroke-linejoin="round"/>
</svg>
