<svg width="32" height="32" viewBox="0 0 32 32" fill="none" xmlns="http://www.w3.org/2000/svg">
<path d="M22.6666 29.3333H9.33325C8.78659 29.3333 8.33325 28.88 8.33325 28.3333C8.33325 27.7867 8.78659 27.3333 9.33325 27.3333H22.6666C23.2133 27.3333 23.6666 27.7867 23.6666 28.3333C23.6666 28.88 23.2133 29.3333 22.6666 29.3333Z" fill="white"/>
<path d="M27.1334 7.36L21.8 11.1733C21.0934 11.68 20.08 11.3733 19.7734 10.56L17.2534 3.84C16.8267 2.68 15.1867 2.68 14.76 3.84L12.2267 10.5467C11.92 11.3733 10.92 11.68 10.2134 11.16L4.88005 7.34667C3.81338 6.6 2.40005 7.65333 2.84005 8.89333L8.38671 24.4267C8.57338 24.96 9.08005 25.3067 9.64005 25.3067H22.3467C22.9067 25.3067 23.4134 24.9467 23.6 24.4267L29.1467 8.89333C29.6 7.65333 28.1867 6.6 27.1334 7.36ZM19.3334 19.6667H12.6667C12.12 19.6667 11.6667 19.2133 11.6667 18.6667C11.6667 18.12 12.12 17.6667 12.6667 17.6667H19.3334C19.88 17.6667 20.3334 18.12 20.3334 18.6667C20.3334 19.2133 19.88 19.6667 19.3334 19.6667Z" fill="white"/>
</svg>
