<svg width="46" height="30" viewBox="0 0 46 30" fill="none" xmlns="http://www.w3.org/2000/svg">
<rect width="46" height="30" rx="12" fill="#E1ECFA"/>
<path d="M18.04 10.576V19H15.988V15.532H12.796V19H10.744V10.576H12.796V13.876H15.988V10.576H18.04ZM23.5053 19.084C22.7133 19.084 21.9853 18.9 21.3213 18.532C20.6653 18.164 20.1413 17.652 19.7493 16.996C19.3653 16.332 19.1733 15.588 19.1733 14.764C19.1733 13.94 19.3653 13.2 19.7493 12.544C20.1413 11.888 20.6653 11.376 21.3213 11.008C21.9853 10.64 22.7133 10.456 23.5053 10.456C24.2973 10.456 25.0213 10.64 25.6773 11.008C26.3413 11.376 26.8613 11.888 27.2373 12.544C27.6213 13.2 27.8133 13.94 27.8133 14.764C27.8133 15.588 27.6213 16.332 27.2373 16.996C26.8533 17.652 26.3333 18.164 25.6773 18.532C25.0213 18.9 24.2973 19.084 23.5053 19.084ZM23.5053 17.212C24.1773 17.212 24.7133 16.988 25.1133 16.54C25.5213 16.092 25.7253 15.5 25.7253 14.764C25.7253 14.02 25.5213 13.428 25.1133 12.988C24.7133 12.54 24.1773 12.316 23.5053 12.316C22.8253 12.316 22.2813 12.536 21.8733 12.976C21.4733 13.416 21.2733 14.012 21.2733 14.764C21.2733 15.508 21.4733 16.104 21.8733 16.552C22.2813 16.992 22.8253 17.212 23.5053 17.212ZM35.0149 10.576V12.22H32.7829V19H30.7309V12.22H28.4989V10.576H35.0149Z" fill="#1472FF"/>
</svg>
