<svg width="24" height="25" viewBox="0 0 24 25" fill="none" xmlns="http://www.w3.org/2000/svg">
<path d="M21.9299 7.26001L18.5599 20.79C18.3199 21.8 17.4199 22.5 16.3799 22.5H3.23989C1.72989 22.5 0.649901 21.0199 1.0999 19.5699L5.30989 6.05005C5.59989 5.11005 6.46991 4.45996 7.44991 4.45996H19.7499C20.6999 4.45996 21.4899 5.03997 21.8199 5.83997C22.0099 6.26997 22.0499 6.76001 21.9299 7.26001Z" stroke="white" stroke-width="2" stroke-miterlimit="10"/>
<path d="M16 22.5H20.78C22.07 22.5 23.08 21.41 22.99 20.12L22 6.5" stroke="white" stroke-width="2" stroke-miterlimit="10" stroke-linecap="round" stroke-linejoin="round"/>
<path d="M9.67993 6.88L10.7199 2.56006" stroke="white" stroke-width="2" stroke-miterlimit="10" stroke-linecap="round" stroke-linejoin="round"/>
<path d="M16.3799 6.89001L17.3199 2.55005" stroke="white" stroke-width="2" stroke-miterlimit="10" stroke-linecap="round" stroke-linejoin="round"/>
<path d="M7.69995 12.5H15.7" stroke="white" stroke-width="2" stroke-miterlimit="10" stroke-linecap="round" stroke-linejoin="round"/>
<path d="M6.69995 16.5H14.7" stroke="white" stroke-width="2" stroke-miterlimit="10" stroke-linecap="round" stroke-linejoin="round"/>
</svg>
