<svg width="120" height="120" viewBox="0 0 120 120" fill="none" xmlns="http://www.w3.org/2000/svg">
<rect width="120" height="120" rx="40" fill="#E1ECFA"/>
<path d="M66.375 35H54.625C52.025 35 49.9 37.1 49.9 39.7V42.05C49.9 44.65 52 46.75 54.6 46.75H66.375C68.975 46.75 71.075 44.65 71.075 42.05V39.7C71.1 37.1 68.975 35 66.375 35Z" fill="#1472FF"/>
<path d="M73.6 42.05C73.6 46.025 70.35 49.275 66.375 49.275H54.625C50.65 49.275 47.4 46.025 47.4 42.05C47.4 40.65 45.9 39.775 44.65 40.425C41.125 42.3 38.725 46.025 38.725 50.3V73.825C38.725 79.975 43.75 85 49.9 85H71.1C77.25 85 82.275 79.975 82.275 73.825V50.3C82.275 46.025 79.875 42.3 76.35 40.425C75.1 39.775 73.6 40.65 73.6 42.05ZM66.825 71.725C66.45 72.1 65.975 72.275 65.5 72.275C65.025 72.275 64.55 72.1 64.175 71.725L60.55 68.1L56.825 71.825C56.45 72.2 55.975 72.375 55.5 72.375C55.025 72.375 54.55 72.2 54.175 71.825C53.45 71.1 53.45 69.9 54.175 69.175L57.9 65.45L54.275 61.825C53.55 61.1 53.55 59.9 54.275 59.175C55 58.45 56.2 58.45 56.925 59.175L60.55 62.8L64.05 59.3C64.775 58.575 65.975 58.575 66.7 59.3C67.425 60.025 67.425 61.225 66.7 61.95L63.2 65.45L66.825 69.075C67.55 69.8 67.55 70.975 66.825 71.725Z" fill="#1472FF"/>
</svg>
