<svg width="70" height="70" viewBox="0 0 70 70" fill="none" xmlns="http://www.w3.org/2000/svg">
<rect width="70" height="70" rx="23.3333" fill="#E8F7E5"/>
<path d="M47.6666 29.0625V44.5C47.6666 49.25 44.8324 50.8333 41.3333 50.8333H28.6666C25.1674 50.8333 22.3333 49.25 22.3333 44.5V29.0625C22.3333 23.9167 25.1674 22.7292 28.6666 22.7292C28.6666 23.7108 29.0624 24.5975 29.7115 25.2467C30.3607 25.8958 31.2474 26.2917 32.2291 26.2917H37.7708C39.7341 26.2917 41.3333 24.6925 41.3333 22.7292C44.8324 22.7292 47.6666 23.9167 47.6666 29.0625Z" stroke="#008900" stroke-width="3" stroke-linecap="round" stroke-linejoin="round"/>
<path d="M41.3334 22.7292C41.3334 24.6925 39.7342 26.2917 37.7709 26.2917H32.2292C31.2476 26.2917 30.3609 25.8958 29.7117 25.2467C29.0625 24.5975 28.6667 23.7108 28.6667 22.7292C28.6667 20.7658 30.2659 19.1667 32.2292 19.1667H37.7709C38.7526 19.1667 39.6393 19.5625 40.2885 20.2117C40.9376 20.8608 41.3334 21.7475 41.3334 22.7292Z" stroke="#008900" stroke-width="3" stroke-linecap="round" stroke-linejoin="round"/>
<path d="M28.6667 36.5833H35.0001" stroke="#008900" stroke-width="3" stroke-linecap="round" stroke-linejoin="round"/>
<path d="M28.6667 42.9167H41.3334" stroke="#008900" stroke-width="3" stroke-linecap="round" stroke-linejoin="round"/>
</svg>
