<svg width="39" height="38" viewBox="0 0 39 38" fill="none" xmlns="http://www.w3.org/2000/svg">
<path opacity="0.4" d="M14.9163 3.16666C10.768 3.16666 7.39551 6.53916 7.39551 10.6875C7.39551 14.7567 10.578 18.05 14.7263 18.1925C14.853 18.1767 14.9797 18.1767 15.0747 18.1925C15.1063 18.1925 15.1222 18.1925 15.1538 18.1925C15.1697 18.1925 15.1697 18.1925 15.1855 18.1925C19.2388 18.05 22.4213 14.7567 22.4372 10.6875C22.4372 6.53916 19.0647 3.16666 14.9163 3.16666Z" fill="url(#paint0_linear_25_1473)"/>
<path d="M22.96 22.4042C18.5425 19.4592 11.3384 19.4592 6.88919 22.4042C4.87835 23.75 3.77002 25.5708 3.77002 27.5183C3.77002 29.4658 4.87835 31.2708 6.87335 32.6008C9.09002 34.0892 12.0034 34.8333 14.9167 34.8333C17.83 34.8333 20.7434 34.0892 22.96 32.6008C24.955 31.255 26.0634 29.45 26.0634 27.4867C26.0475 25.5392 24.955 23.7342 22.96 22.4042Z" fill="url(#paint1_linear_25_1473)"/>
<path opacity="0.4" d="M32.3173 11.6217C32.5707 14.6933 30.3857 17.385 27.3615 17.7492C27.3457 17.7492 27.3457 17.7492 27.3298 17.7492H27.2823C27.1873 17.7492 27.0923 17.7492 27.0132 17.7808C25.4773 17.86 24.0682 17.3692 23.0073 16.4667C24.6382 15.01 25.5723 12.825 25.3823 10.45C25.2715 9.1675 24.8282 7.99583 24.1632 6.99833C24.7648 6.6975 25.4615 6.5075 26.174 6.44416C29.2773 6.175 32.0482 8.48666 32.3173 11.6217Z" fill="url(#paint2_linear_25_1473)"/>
<path d="M35.484 26.2675C35.3574 27.8033 34.3757 29.1333 32.729 30.0358C31.1457 30.9067 29.1507 31.3183 27.1715 31.2708C28.3115 30.2417 28.9765 28.9592 29.1032 27.5975C29.2615 25.6342 28.3274 23.75 26.4591 22.2458C25.3982 21.4067 24.1632 20.7417 22.8174 20.2508C26.3165 19.2375 30.7182 19.9183 33.4257 22.1033C34.8824 23.275 35.6265 24.7475 35.484 26.2675Z" fill="url(#paint3_linear_25_1473)"/>
<defs>
<linearGradient id="paint0_linear_25_1473" x1="14.9163" y1="3.16666" x2="14.9163" y2="18.1925" gradientUnits="userSpaceOnUse">
<stop stop-color="#1472FF"/>
<stop offset="1" stop-color="#72AAFF"/>
</linearGradient>
<linearGradient id="paint1_linear_25_1473" x1="14.9167" y1="20.1954" x2="14.9167" y2="34.8333" gradientUnits="userSpaceOnUse">
<stop stop-color="#1472FF"/>
<stop offset="1" stop-color="#72AAFF"/>
</linearGradient>
<linearGradient id="paint2_linear_25_1473" x1="27.6723" y1="6.42285" x2="27.6723" y2="17.7891" gradientUnits="userSpaceOnUse">
<stop stop-color="#1472FF"/>
<stop offset="1" stop-color="#72AAFF"/>
</linearGradient>
<linearGradient id="paint3_linear_25_1473" x1="29.1593" y1="19.791" x2="29.1593" y2="31.2745" gradientUnits="userSpaceOnUse">
<stop stop-color="#1472FF"/>
<stop offset="1" stop-color="#72AAFF"/>
</linearGradient>
</defs>
</svg>
