<svg width="38" height="39" viewBox="0 0 38 39" fill="none" xmlns="http://www.w3.org/2000/svg">
<path d="M16.6091 4.03084L8.70833 6.99167C6.8875 7.6725 5.39917 9.82582 5.39917 11.7733V23.5375C5.39917 25.4058 6.63419 27.86 8.13835 28.9841L14.9467 34.0667C17.1792 35.745 20.8525 35.745 23.085 34.0667L29.8933 28.9841C31.3975 27.86 32.6325 25.4058 32.6325 23.5375V11.7733C32.6325 9.82582 31.1441 7.6725 29.3233 6.99167L21.4225 4.03084C20.0767 3.54001 17.9233 3.54001 16.6091 4.03084Z" stroke="#008900" stroke-width="3" stroke-linecap="round" stroke-linejoin="round"/>
<path d="M19.0001 17.79C18.9368 17.79 18.8576 17.79 18.7942 17.79C17.3059 17.7425 16.1184 16.5075 16.1184 15.0034C16.1184 13.4675 17.3693 12.2167 18.9051 12.2167C20.4409 12.2167 21.6918 13.4675 21.6918 15.0034C21.6759 16.5234 20.4884 17.7425 19.0001 17.79Z" stroke="#008900" stroke-width="3" stroke-linecap="round" stroke-linejoin="round"/>
<path d="M15.8492 22.2233C14.3292 23.2367 14.3292 24.8991 15.8492 25.9125C17.5751 27.0683 20.4092 27.0683 22.1351 25.9125C23.6551 24.8991 23.6551 23.2367 22.1351 22.2233C20.4251 21.0675 17.5909 21.0675 15.8492 22.2233Z" stroke="#008900" stroke-width="3" stroke-linecap="round" stroke-linejoin="round"/>
</svg>
