<svg width="25" height="24" viewBox="0 0 25 24" fill="none" xmlns="http://www.w3.org/2000/svg">
<path d="M12.6665 2C7.1565 2 2.6665 6.49 2.6665 12C2.6665 17.51 7.1565 22 12.6665 22C18.1765 22 22.6665 17.51 22.6665 12C22.6665 6.49 18.1765 2 12.6665 2ZM17.4465 9.7L11.7765 15.37C11.6365 15.51 11.4465 15.59 11.2465 15.59C11.0465 15.59 10.8565 15.51 10.7165 15.37L7.8865 12.54C7.5965 12.25 7.5965 11.77 7.8865 11.48C8.1765 11.19 8.6565 11.19 8.9465 11.48L11.2465 13.78L16.3865 8.64C16.6765 8.35 17.1565 8.35 17.4465 8.64C17.7365 8.93 17.7365 9.4 17.4465 9.7Z" fill="#1472FF"/>
</svg>
