<svg width="24" height="25" viewBox="0 0 24 25" fill="none" xmlns="http://www.w3.org/2000/svg">
<path d="M21.56 11.24L20.2 9.66C19.94 9.36 19.73 8.8 19.73 8.4V6.7C19.73 5.64 18.86 4.77 17.8 4.77H16.1C15.71 4.77 15.14 4.56 14.84 4.3L13.26 2.94C12.57 2.35 11.44 2.35 10.74 2.94L9.17 4.31C8.87 4.56 8.3 4.77 7.91 4.77H6.18C5.12 4.77 4.25 5.64 4.25 6.7V8.41C4.25 8.8 4.04 9.36 3.79 9.66L2.44 11.25C1.86 11.94 1.86 13.06 2.44 13.75L3.79 15.34C4.04 15.64 4.25 16.2 4.25 16.59V18.3C4.25 19.36 5.12 20.23 6.18 20.23H7.91C8.3 20.23 8.87 20.44 9.17 20.7L10.75 22.06C11.44 22.65 12.57 22.65 13.27 22.06L14.85 20.7C15.15 20.44 15.71 20.23 16.11 20.23H17.81C18.87 20.23 19.74 19.36 19.74 18.3V16.6C19.74 16.21 19.95 15.64 20.21 15.34L21.57 13.76C22.15 13.07 22.15 11.93 21.56 11.24ZM16.16 10.61L11.33 15.44C11.19 15.58 11 15.66 10.8 15.66C10.6 15.66 10.41 15.58 10.27 15.44L7.85 13.02C7.56 12.73 7.56 12.25 7.85 11.96C8.14 11.67 8.62 11.67 8.91 11.96L10.8 13.85L15.1 9.55C15.39 9.26 15.87 9.26 16.16 9.55C16.45 9.84 16.45 10.32 16.16 10.61Z" fill="#1472FF"/>
</svg>
