<svg width="39" height="39" viewBox="0 0 39 39" fill="none" xmlns="http://www.w3.org/2000/svg">
<mask id="mask0_16_2282" style="mask-type:alpha" maskUnits="userSpaceOnUse" x="0" y="0" width="39" height="39">
<rect x="0.253418" y="0.708679" width="38" height="38" fill="#D9D9D9"/>
</mask>
<g mask="url(#mask0_16_2282)">
</g>
<g clip-path="url(#clip0_16_2282)">
<path d="M38 19.2914C38 8.79796 29.4934 0.291382 19 0.291382C8.50658 0.291382 0 8.79796 0 19.2914C0 28.7748 6.94803 36.6352 16.0312 38.0606V24.7836H11.207V19.2914H16.0312V15.1054C16.0312 10.3436 18.8678 7.71326 23.2078 7.71326C25.2866 7.71326 27.4609 8.08435 27.4609 8.08435V12.7601H25.0651C22.7048 12.7601 21.9688 14.2247 21.9688 15.7273V19.2914H27.2383L26.3959 24.7836H21.9688V38.0606C31.052 36.6352 38 28.7748 38 19.2914Z" fill="#1877F2"/>
<path d="M26.3959 24.7836L27.2383 19.2914H21.9688V15.7273C21.9688 14.2247 22.7048 12.7601 25.0651 12.7601H27.4609V8.08435C27.4609 8.08435 25.2866 7.71326 23.2078 7.71326C18.8678 7.71326 16.0312 10.3436 16.0312 15.1054V19.2914H11.207V24.7836H16.0312V38.0606C16.9986 38.2123 17.99 38.2914 19 38.2914C20.01 38.2914 21.0014 38.2123 21.9688 38.0606V24.7836H26.3959Z" fill="white"/>
</g>
<defs>
<clipPath id="clip0_16_2282">
<rect width="38" height="38" fill="white" transform="translate(0 0.291382)"/>
</clipPath>
</defs>
</svg>
