<svg width="38" height="39" viewBox="0 0 38 39" fill="none" xmlns="http://www.w3.org/2000/svg">
<g clip-path="url(#clip0_16_2701)">
<path d="M19.0098 0.787872C11.1962 0.787872 8.91105 0.795933 8.46685 0.832781C6.86337 0.966069 5.86558 1.21854 4.77855 1.75975C3.94082 2.17574 3.28014 2.65793 2.62809 3.33387C1.44059 4.56657 0.720896 6.08311 0.460365 7.88581C0.333699 8.76096 0.29685 8.93945 0.289365 13.4096C0.286487 14.8997 0.289365 16.8607 0.289365 19.4911C0.289365 27.2983 0.298002 29.5812 0.335426 30.0246C0.464971 31.5849 0.709668 32.5665 1.22785 33.6403C2.21815 35.6958 4.10952 37.2388 6.3377 37.8146C7.10921 38.0132 7.96134 38.1226 9.05527 38.1744C9.51876 38.1946 14.2429 38.2089 18.9698 38.2089C23.6968 38.2089 28.4238 38.2032 28.8757 38.1802C30.1424 38.1206 30.8779 38.0218 31.6912 37.8117C33.9338 37.233 35.7906 35.713 36.801 33.6288C37.3091 32.5809 37.5668 31.5618 37.6834 30.083C37.7087 29.7606 37.7194 24.6199 37.7194 19.4862C37.7194 14.3516 37.7079 9.22042 37.6825 8.89799C37.5645 7.39527 37.3068 6.38481 36.7823 5.31678C36.3519 4.44249 35.8741 3.78958 35.1803 3.12199C33.9421 1.93939 32.4279 1.21969 30.6234 0.959448C29.7492 0.833069 29.575 0.795645 25.1014 0.787872H19.0098Z" fill="url(#paint0_radial_16_2701)"/>
<path d="M19.0098 0.787872C11.1962 0.787872 8.91105 0.795933 8.46685 0.832781C6.86337 0.966069 5.86558 1.21854 4.77855 1.75975C3.94082 2.17574 3.28014 2.65793 2.62809 3.33387C1.44059 4.56657 0.720896 6.08311 0.460365 7.88581C0.333699 8.76096 0.29685 8.93945 0.289365 13.4096C0.286487 14.8997 0.289365 16.8607 0.289365 19.4911C0.289365 27.2983 0.298002 29.5812 0.335426 30.0246C0.464971 31.5849 0.709668 32.5665 1.22785 33.6403C2.21815 35.6958 4.10952 37.2388 6.3377 37.8146C7.10921 38.0132 7.96134 38.1226 9.05527 38.1744C9.51876 38.1946 14.2429 38.2089 18.9698 38.2089C23.6968 38.2089 28.4238 38.2032 28.8757 38.1802C30.1424 38.1206 30.8779 38.0218 31.6912 37.8117C33.9338 37.233 35.7906 35.713 36.801 33.6288C37.3091 32.5809 37.5668 31.5618 37.6834 30.083C37.7087 29.7606 37.7194 24.6199 37.7194 19.4862C37.7194 14.3516 37.7079 9.22042 37.6825 8.89799C37.5645 7.39527 37.3068 6.38481 36.7823 5.31678C36.3519 4.44249 35.8741 3.78958 35.1803 3.12199C33.9421 1.93939 32.4279 1.21969 30.6234 0.959448C29.7492 0.833069 29.575 0.795645 25.1014 0.787872H19.0098Z" fill="url(#paint1_radial_16_2701)"/>
<path d="M19.0012 5.68182C15.2484 5.68182 14.7775 5.69823 13.3035 5.76531C11.8325 5.83267 10.8283 6.06557 9.94973 6.40728C9.0409 6.76022 8.26996 7.23234 7.5019 8.00069C6.73326 8.76875 6.26114 9.53969 5.90705 10.4482C5.56448 11.3271 5.33129 12.3315 5.26508 13.802C5.19916 15.276 5.18188 15.7472 5.18188 19.5C5.18188 23.2528 5.19858 23.7223 5.26537 25.1963C5.33302 26.6673 5.56592 27.6714 5.90734 28.55C6.26057 29.4589 6.73269 30.2298 7.50104 30.9979C8.26881 31.7665 9.03975 32.2398 9.94801 32.5927C10.8272 32.9344 11.8316 33.1673 13.3024 33.2347C14.7763 33.3018 15.247 33.3182 18.9995 33.3182C22.7526 33.3182 23.2221 33.3018 24.696 33.2347C26.1671 33.1673 27.1724 32.9344 28.0516 32.5927C28.9601 32.2398 29.7299 31.7665 30.4977 30.9979C31.2663 30.2298 31.7384 29.4589 32.0925 28.5503C32.4322 27.6714 32.6654 26.667 32.7345 25.1966C32.8007 23.7226 32.818 23.2528 32.818 19.5C32.818 15.7472 32.8007 15.2762 32.7345 13.8023C32.6654 12.3312 32.4322 11.3271 32.0925 10.4485C31.7384 9.53969 31.2663 8.76875 30.4977 8.00069C29.729 7.23205 28.9604 6.75993 28.0507 6.40728C27.1698 6.06557 26.1651 5.83267 24.694 5.76531C23.2201 5.69823 22.7508 5.68182 18.9969 5.68182H19.0012ZM17.7616 8.17198C18.1295 8.1714 18.54 8.17198 19.0012 8.17198C22.6907 8.17198 23.128 8.18522 24.5849 8.25143C25.9322 8.31304 26.6634 8.53816 27.1505 8.72729C27.7953 8.97775 28.2551 9.27714 28.7384 9.76078C29.2221 10.2444 29.5215 10.705 29.7725 11.3499C29.9616 11.8364 30.187 12.5676 30.2484 13.9149C30.3146 15.3715 30.329 15.8091 30.329 19.4968C30.329 23.1846 30.3146 23.6221 30.2484 25.0788C30.1867 26.4261 29.9616 27.1573 29.7725 27.6438C29.522 28.2887 29.2221 28.7478 28.7384 29.2312C28.2548 29.7148 27.7956 30.0142 27.1505 30.2647C26.664 30.4547 25.9322 30.6792 24.5849 30.7408C23.1282 30.807 22.6907 30.8214 19.0012 30.8214C15.3115 30.8214 14.8742 30.807 13.4175 30.7408C12.0702 30.6786 11.339 30.4535 10.8517 30.2644C10.2068 30.0139 9.7462 29.7145 9.26257 29.2309C8.77893 28.7472 8.47954 28.2878 8.22851 27.6427C8.03937 27.1561 7.81396 26.4249 7.75264 25.0777C7.68643 23.621 7.67319 23.1834 7.67319 19.4934C7.67319 15.8034 7.68643 15.3681 7.75264 13.9114C7.81425 12.5641 8.03937 11.8329 8.22851 11.3458C8.47896 10.701 8.77893 10.2404 9.26257 9.75675C9.7462 9.27311 10.2068 8.97372 10.8517 8.72269C11.3387 8.53269 12.0702 8.30814 13.4175 8.24625C14.6922 8.18867 15.1862 8.1714 17.7616 8.16852V8.17198ZM26.3772 10.4664C25.4618 10.4664 24.7191 11.2082 24.7191 12.124C24.7191 13.0394 25.4618 13.7822 26.3772 13.7822C27.2927 13.7822 28.0354 13.0394 28.0354 12.124C28.0354 11.2085 27.2927 10.4658 26.3772 10.4658V10.4664ZM19.0012 12.4038C15.0823 12.4038 11.905 15.5811 11.905 19.5C11.905 23.4189 15.0823 26.5948 19.0012 26.5948C22.9201 26.5948 26.0963 23.4189 26.0963 19.5C26.0963 15.5811 22.9201 12.4038 19.0012 12.4038ZM19.0012 14.8939C21.5449 14.8939 23.6073 16.956 23.6073 19.5C23.6073 22.0437 21.5449 24.1061 19.0012 24.1061C16.4572 24.1061 14.3952 22.0437 14.3952 19.5C14.3952 16.956 16.4572 14.8939 19.0012 14.8939Z" fill="white"/>
</g>
<defs>
<radialGradient id="paint0_radial_16_2701" cx="0" cy="0" r="1" gradientUnits="userSpaceOnUse" gradientTransform="translate(10.2308 41.0912) rotate(-90) scale(37.087 34.5033)">
<stop stop-color="#FFDD55"/>
<stop offset="0.1" stop-color="#FFDD55"/>
<stop offset="0.5" stop-color="#FF543E"/>
<stop offset="1" stop-color="#C837AB"/>
</radialGradient>
<radialGradient id="paint1_radial_16_2701" cx="0" cy="0" r="1" gradientUnits="userSpaceOnUse" gradientTransform="translate(-5.98185 3.48362) rotate(78.6776) scale(16.5782 68.3534)">
<stop stop-color="#3771C8"/>
<stop offset="0.128" stop-color="#3771C8"/>
<stop offset="1" stop-color="#6600FF" stop-opacity="0"/>
</radialGradient>
<clipPath id="clip0_16_2701">
<rect width="38.0012" height="38" fill="white" transform="translate(0 0.5)"/>
</clipPath>
</defs>
</svg>
