<svg width="149" height="46" viewBox="0 0 149 46" fill="none" xmlns="http://www.w3.org/2000/svg">
<path d="M25.3283 36.9283C25.3696 32.7062 24.2992 29.2727 22.9376 29.2594C21.5759 29.2461 20.4386 32.658 20.3974 36.8801C20.3561 41.1023 21.4265 44.5358 22.7881 44.549C24.1498 44.5624 25.2871 41.1505 25.3283 36.9283Z" fill="#1472FF"/>
<path d="M17.4312 35.9694C19.7488 32.4399 20.7048 28.9728 19.5665 28.2254C18.4282 27.478 15.6267 29.7333 13.3093 33.2628C10.9917 36.7922 10.0357 40.2593 11.1739 41.0068C12.3123 41.7542 15.1137 39.4989 17.4312 35.9694Z" fill="#1472FF"/>
<path d="M11.2969 30.9056C15.1548 29.1896 17.8336 26.7899 17.2801 25.5457C16.7267 24.3015 13.1507 24.684 9.29273 26.4001C5.43484 28.1161 2.75605 30.5158 3.30947 31.76C3.86289 33.0042 7.43897 32.6217 11.2969 30.9056Z" fill="#1472FF"/>
<path d="M16.8171 22.0565C17.0242 20.7107 13.8091 19.0989 9.636 18.4566C5.46277 17.8142 1.91181 18.3846 1.70466 19.7305C1.49752 21.0764 4.71262 22.688 8.88582 23.3304C13.059 23.9727 16.61 23.4023 16.8171 22.0565Z" fill="#1472FF"/>
<path d="M18.3153 18.8504C19.2171 17.8301 17.3834 14.7362 14.2196 11.9401C11.0558 9.14393 7.75999 7.70435 6.85822 8.72468C5.95646 9.74504 7.7902 12.8389 10.954 15.6351C14.1178 18.4312 17.4136 19.8707 18.3153 18.8504Z" fill="#1472FF"/>
<path d="M21.2993 16.9765C22.6096 16.6058 22.7397 13.0116 21.5901 8.94885C20.4405 4.88605 18.4463 1.89307 17.136 2.26383C15.8258 2.6346 15.6956 6.22871 16.8452 10.2916C17.9948 14.3543 19.989 17.3473 21.2993 16.9765Z" fill="#1472FF"/>
<path d="M29.4017 10.418C30.6313 6.37861 30.5721 2.78262 29.2694 2.38609C27.9666 1.98956 25.9138 4.94263 24.6843 8.98197C23.4548 13.0213 23.514 16.6173 24.8167 17.0138C26.1195 17.4103 28.1723 14.4573 29.4017 10.418Z" fill="#1472FF"/>
<path d="M35.1912 15.876C38.4091 13.1422 40.303 10.0847 39.4213 9.04701C38.5397 8.00925 35.2164 9.38416 31.9986 12.1178C28.7807 14.8516 26.8869 17.9091 27.7685 18.9468C28.6501 19.9846 31.9734 18.6097 35.1912 15.876Z" fill="#1472FF"/>
<path d="M37.1057 23.5997C41.2908 23.0398 44.537 21.4918 44.3564 20.1421C44.1759 18.7925 40.6368 18.1522 36.4517 18.712C32.2667 19.272 29.0204 20.82 29.201 22.1697C29.3816 23.5193 32.9206 24.1596 37.1057 23.5997Z" fill="#1472FF"/>
<path d="M42.5044 32.1457C43.0823 30.9127 40.4513 28.4607 36.628 26.6689C32.8048 24.8771 29.2369 24.4242 28.6591 25.6571C28.0812 26.8902 30.7121 29.3423 34.5355 31.1341C38.3587 32.9258 41.9266 33.3788 42.5044 32.1457Z" fill="#1472FF"/>
<path d="M34.4621 41.2435C35.6149 40.5187 34.7275 37.0334 32.48 33.4589C30.2325 29.8845 27.476 27.5744 26.3233 28.2992C25.1705 29.024 26.0579 32.5093 28.3054 36.0838C30.5529 39.6583 33.3094 41.9684 34.4621 41.2435Z" fill="#1472FF"/>
<path d="M65.688 22.36C66.664 22.568 67.448 23.056 68.04 23.824C68.632 24.576 68.928 25.44 68.928 26.416C68.928 27.824 68.432 28.944 67.44 29.776C66.464 30.592 65.096 31 63.336 31H55.488V14.152H63.072C64.784 14.152 66.12 14.544 67.08 15.328C68.056 16.112 68.544 17.176 68.544 18.52C68.544 19.512 68.28 20.336 67.752 20.992C67.24 21.648 66.552 22.104 65.688 22.36ZM59.592 20.968H62.28C62.952 20.968 63.464 20.824 63.816 20.536C64.184 20.232 64.368 19.792 64.368 19.216C64.368 18.64 64.184 18.2 63.816 17.896C63.464 17.592 62.952 17.44 62.28 17.44H59.592V20.968ZM62.616 27.688C63.304 27.688 63.832 27.536 64.2 27.232C64.584 26.912 64.776 26.456 64.776 25.864C64.776 25.272 64.576 24.808 64.176 24.472C63.792 24.136 63.256 23.968 62.568 23.968H59.592V27.688H62.616ZM77.4043 31.192C76.0923 31.192 74.9083 30.912 73.8523 30.352C72.8123 29.792 71.9883 28.992 71.3803 27.952C70.7883 26.912 70.4923 25.696 70.4923 24.304C70.4923 22.928 70.7963 21.72 71.4043 20.68C72.0123 19.624 72.8443 18.816 73.9003 18.256C74.9563 17.696 76.1403 17.416 77.4523 17.416C78.7643 17.416 79.9483 17.696 81.0043 18.256C82.0603 18.816 82.8923 19.624 83.5003 20.68C84.1083 21.72 84.4123 22.928 84.4123 24.304C84.4123 25.68 84.1003 26.896 83.4763 27.952C82.8683 28.992 82.0283 29.792 80.9563 30.352C79.9003 30.912 78.7163 31.192 77.4043 31.192ZM77.4043 27.64C78.1883 27.64 78.8523 27.352 79.3963 26.776C79.9563 26.2 80.2363 25.376 80.2363 24.304C80.2363 23.232 79.9643 22.408 79.4203 21.832C78.8923 21.256 78.2363 20.968 77.4523 20.968C76.6523 20.968 75.9883 21.256 75.4603 21.832C74.9323 22.392 74.6683 23.216 74.6683 24.304C74.6683 25.376 74.9243 26.2 75.4363 26.776C75.9643 27.352 76.6203 27.64 77.4043 27.64ZM92.6856 31.192C91.3736 31.192 90.1896 30.912 89.1336 30.352C88.0936 29.792 87.2696 28.992 86.6616 27.952C86.0696 26.912 85.7736 25.696 85.7736 24.304C85.7736 22.928 86.0776 21.72 86.6856 20.68C87.2936 19.624 88.1256 18.816 89.1816 18.256C90.2376 17.696 91.4216 17.416 92.7336 17.416C94.0456 17.416 95.2296 17.696 96.2856 18.256C97.3416 18.816 98.1736 19.624 98.7816 20.68C99.3896 21.72 99.6936 22.928 99.6936 24.304C99.6936 25.68 99.3816 26.896 98.7576 27.952C98.1496 28.992 97.3096 29.792 96.2376 30.352C95.1816 30.912 93.9976 31.192 92.6856 31.192ZM92.6856 27.64C93.4696 27.64 94.1336 27.352 94.6776 26.776C95.2376 26.2 95.5176 25.376 95.5176 24.304C95.5176 23.232 95.2456 22.408 94.7016 21.832C94.1736 21.256 93.5176 20.968 92.7336 20.968C91.9336 20.968 91.2696 21.256 90.7416 21.832C90.2136 22.392 89.9496 23.216 89.9496 24.304C89.9496 25.376 90.2056 26.2 90.7176 26.776C91.2456 27.352 91.9016 27.64 92.6856 27.64ZM107.319 31.192C106.151 31.192 105.111 30.992 104.199 30.592C103.287 30.192 102.567 29.648 102.039 28.96C101.511 28.256 101.215 27.472 101.151 26.608H105.207C105.255 27.072 105.471 27.448 105.855 27.736C106.239 28.024 106.711 28.168 107.271 28.168C107.783 28.168 108.175 28.072 108.447 27.88C108.735 27.672 108.879 27.408 108.879 27.088C108.879 26.704 108.679 26.424 108.279 26.248C107.879 26.056 107.231 25.848 106.335 25.624C105.375 25.4 104.575 25.168 103.935 24.928C103.295 24.672 102.743 24.28 102.279 23.752C101.815 23.208 101.583 22.48 101.583 21.568C101.583 20.8 101.791 20.104 102.207 19.48C102.639 18.84 103.263 18.336 104.079 17.968C104.911 17.6 105.895 17.416 107.031 17.416C108.711 17.416 110.031 17.832 110.991 18.664C111.967 19.496 112.527 20.6 112.671 21.976H108.879C108.815 21.512 108.607 21.144 108.255 20.872C107.919 20.6 107.471 20.464 106.911 20.464C106.431 20.464 106.063 20.56 105.807 20.752C105.551 20.928 105.423 21.176 105.423 21.496C105.423 21.88 105.623 22.168 106.023 22.36C106.439 22.552 107.079 22.744 107.943 22.936C108.935 23.192 109.743 23.448 110.367 23.704C110.991 23.944 111.535 24.344 111.999 24.904C112.479 25.448 112.727 26.184 112.743 27.112C112.743 27.896 112.519 28.6 112.071 29.224C111.639 29.832 111.007 30.312 110.175 30.664C109.359 31.016 108.407 31.192 107.319 31.192ZM122.718 27.52V31H120.63C119.142 31 117.982 30.64 117.15 29.92C116.318 29.184 115.902 27.992 115.902 26.344V21.016H114.27V17.608H115.902V14.344H120.006V17.608H122.694V21.016H120.006V26.392C120.006 26.792 120.102 27.08 120.294 27.256C120.486 27.432 120.806 27.52 121.254 27.52H122.718ZM137.628 24.088C137.628 24.472 137.604 24.872 137.556 25.288H128.268C128.332 26.12 128.596 26.76 129.06 27.208C129.54 27.64 130.124 27.856 130.812 27.856C131.836 27.856 132.548 27.424 132.948 26.56H137.316C137.092 27.44 136.684 28.232 136.092 28.936C135.516 29.64 134.788 30.192 133.908 30.592C133.028 30.992 132.044 31.192 130.956 31.192C129.644 31.192 128.476 30.912 127.452 30.352C126.428 29.792 125.628 28.992 125.052 27.952C124.476 26.912 124.188 25.696 124.188 24.304C124.188 22.912 124.468 21.696 125.028 20.656C125.604 19.616 126.404 18.816 127.428 18.256C128.452 17.696 129.628 17.416 130.956 17.416C132.252 17.416 133.404 17.688 134.412 18.232C135.42 18.776 136.204 19.552 136.764 20.56C137.34 21.568 137.628 22.744 137.628 24.088ZM133.428 23.008C133.428 22.304 133.188 21.744 132.708 21.328C132.228 20.912 131.628 20.704 130.908 20.704C130.22 20.704 129.636 20.904 129.156 21.304C128.692 21.704 128.404 22.272 128.292 23.008H133.428ZM143.897 19.84C144.377 19.104 144.977 18.528 145.697 18.112C146.417 17.68 147.217 17.464 148.097 17.464V21.808H146.969C145.945 21.808 145.177 22.032 144.665 22.48C144.153 22.912 143.897 23.68 143.897 24.784V31H139.793V17.608H143.897V19.84Z" fill="#06071F"/>
</svg>
