<svg width="34" height="39" viewBox="0 0 34 39" fill="none" xmlns="http://www.w3.org/2000/svg">
<g clip-path="url(#clip0_16_2302)">
<path d="M24.8598 14.1828C27.3072 15.9315 30.3055 16.9603 33.5437 16.9603V10.7321C32.9309 10.7323 32.3196 10.6684 31.7201 10.5414V15.4439C28.4821 15.4439 25.4842 14.415 23.0361 12.6665V25.3764C23.0361 31.7346 17.8792 36.8885 11.5182 36.8885C9.14475 36.8885 6.93874 36.1713 5.1062 34.9413C7.19774 37.0788 10.1146 38.4048 13.3415 38.4048C19.7029 38.4048 24.86 33.2509 24.86 26.8925V14.1828H24.8598ZM27.1095 7.89936C25.8587 6.53358 25.0375 4.76856 24.8598 2.81725V2.01617H23.1316C23.5666 4.49628 25.0504 6.61514 27.1095 7.89936ZM9.12953 30.0623C8.43071 29.1465 8.05306 28.0262 8.05475 26.8742C8.05475 23.9663 10.4135 21.6085 13.3235 21.6085C13.8659 21.6083 14.405 21.6913 14.9218 21.8552V15.4879C14.3178 15.4051 13.7082 15.37 13.0989 15.3829V20.3389C12.5817 20.175 12.0423 20.0918 11.4998 20.0923C8.5898 20.0923 6.23119 22.4499 6.23119 25.3582C6.23119 27.4146 7.41017 29.195 9.12953 30.0623Z" fill="#FF004F"/>
<path d="M23.0361 12.6664C25.4842 14.4149 28.4821 15.4438 31.7201 15.4438V10.5413C29.9127 10.1565 28.3126 9.21246 27.1095 7.89936C25.0503 6.61501 23.5666 4.49615 23.1316 2.01617H18.5921V26.8922C18.5818 29.7922 16.2271 32.1404 13.3233 32.1404C11.6121 32.1404 10.0919 31.3252 9.12917 30.0623C7.40994 29.195 6.23096 27.4145 6.23096 25.3583C6.23096 22.4502 8.58957 20.0924 11.4996 20.0924C12.0572 20.0924 12.5946 20.1792 13.0986 20.3391V15.383C6.8494 15.5121 1.82349 20.6156 1.82349 26.8923C1.82349 30.0256 3.07505 32.8661 5.10636 34.9415C6.9389 36.1713 9.14491 36.8886 11.5184 36.8886C17.8795 36.8886 23.0363 31.7344 23.0363 25.3764L23.0361 12.6664Z" fill="#0A081C"/>
<path d="M31.7202 10.5413V9.2157C30.0903 9.21817 28.4924 8.76196 27.1096 7.89922C28.3337 9.23873 29.9456 10.1623 31.7202 10.5413ZM23.1317 2.01616C23.0902 1.77915 23.0583 1.54057 23.0362 1.30108V0.5H16.7683V25.3763C16.7583 28.2759 14.4038 30.6241 11.4997 30.6241C10.6471 30.6241 9.84212 30.4218 9.12925 30.0624C10.092 31.3252 11.6122 32.1403 13.3234 32.1403C16.2269 32.1403 18.582 29.7924 18.5922 26.8923V2.01616H23.1317ZM13.099 15.383V13.9718C12.5753 13.9003 12.0472 13.8644 11.5186 13.8646C5.15691 13.8646 0 19.0187 0 25.3763C0 29.3622 2.02676 32.8749 5.10657 34.9412C3.07526 32.8659 1.82369 30.0253 1.82369 26.8922C1.82369 20.6156 6.84947 15.512 13.099 15.383Z" fill="#00F2EA"/>
</g>
<defs>
<clipPath id="clip0_16_2302">
<rect width="33.5448" height="38" fill="white" transform="translate(0 0.5)"/>
</clipPath>
</defs>
</svg>
