<svg width="38" height="39" viewBox="0 0 38 39" fill="none" xmlns="http://www.w3.org/2000/svg">
<g clip-path="url(#clip0_16_2708)">
<path d="M19.0001 38.4997C29.4934 38.4997 37.9999 29.9931 37.9999 19.4998C37.9999 9.00651 29.4934 0.5 19.0001 0.5C8.50676 0.5 0.000244141 9.00651 0.000244141 19.4998C0.000244141 29.9931 8.50676 38.4997 19.0001 38.4997Z" fill="#0794FF"/>
<path d="M30.6381 14.1546C29.8238 14.5157 28.948 14.7599 28.0295 14.8689C28.9673 14.307 29.687 13.418 30.0267 12.3568C29.1492 12.8774 28.1768 13.2551 27.1428 13.4586C26.3143 12.5763 25.134 12.0249 23.827 12.0249C21.3193 12.0249 19.2855 14.0588 19.2855 16.5664C19.2855 16.9224 19.3258 17.2689 19.4037 17.6015C15.6293 17.4121 12.2827 15.6042 10.0427 12.8557C9.65181 13.5263 9.42759 14.307 9.42759 15.1392C9.42759 16.7144 10.2299 18.1051 11.4479 18.9193C10.7038 18.8959 10.003 18.6917 9.39101 18.3506C9.39068 18.37 9.39068 18.3893 9.39068 18.4082C9.39068 20.6087 10.9568 22.4441 13.034 22.861C12.6533 22.9653 12.2513 23.0205 11.8377 23.0205C11.5444 23.0205 11.2602 22.9924 10.9832 22.9396C11.561 24.7434 13.2379 26.0565 15.2256 26.0934C13.671 27.3117 11.7131 28.0375 9.58474 28.0375C9.21896 28.0375 8.85656 28.0162 8.50195 27.9738C10.5107 29.2629 12.8985 30.0145 15.463 30.0145C23.8165 30.0145 28.3847 23.0943 28.3847 17.0924C28.3847 16.8956 28.3803 16.6995 28.3715 16.5051C29.2596 15.865 30.0294 15.0654 30.6381 14.1546Z" fill="#F1F2F2"/>
</g>
<defs>
<clipPath id="clip0_16_2708">
<rect width="38" height="38" fill="white" transform="translate(0 0.5)"/>
</clipPath>
</defs>
</svg>
